<?xml version="1.0" encoding="utf-8"?>
<!DOCTYPE svg PUBLIC "-//W3C//DTD SVG 1.1//EN" "http://www.w3.org/Graphics/SVG/1.1/DTD/svg11.dtd">
<svg style="width:308px;height:308px;" version="1.1" id="图形" xmlns="http://www.w3.org/2000/svg" xmlns:xlink="http://www.w3.org/1999/xlink" x="0px" y="0px" width="1024px" height="1024px" viewBox="0 0 1024 1024" enable-background="new 0 0 1024 1024" xml:space="preserve">
  <path class="svgpath" data-index="path_0" fill="#333" d="M893.313554 928.111093 127.633901 928.111093c-70.473051 0-127.613446-57.139372-127.613446-127.611399L0.020455 226.239697c0-70.50375 57.139372-127.613446 127.613446-127.613446l765.679653 0c70.473051 0 127.613446 57.108672 127.613446 127.613446l0 574.259996C1020.927 870.971721 963.786605 928.111093 893.313554 928.111093zM159.537518 162.432463l350.935698 305.075207L861.408913 162.432463 159.537518 162.432463zM957.118742 226.239697c0-18.382673-7.867178-34.802644-20.280906-46.420239L510.473216 545.271778 84.109618 179.818435c-12.431124 11.618619-20.281929 28.037567-20.281929 46.420239l0 574.259996c0 35.235502 28.569686 63.806211 63.807235 63.806211l765.679653 0c35.235502 0 63.806211-28.570709 63.806211-63.806211L957.120788 226.239697z" />

</svg>
