<?xml version="1.0" encoding="utf-8"?>
<!DOCTYPE svg PUBLIC "-//W3C//DTD SVG 1.1//EN" "http://www.w3.org/Graphics/SVG/1.1/DTD/svg11.dtd">
<svg style="width:308px;height:308px;" version="1.1" id="图形" xmlns="http://www.w3.org/2000/svg" xmlns:xlink="http://www.w3.org/1999/xlink" x="0px" y="0px" width="1024px" height="1024px" viewBox="0 0 1024 1024" enable-background="new 0 0 1024 1024" xml:space="preserve">
  <path class="svgpath" data-index="path_0" fill="#999" d="M306.419831 958.004937 717.577099 958.004937c60.555168 0 109.646236-49.90869 109.646236-111.500467L827.223335 177.494507c0-61.591777-49.091068-111.500467-109.646236-111.500467L306.419831 65.99404c-60.552098 0-109.643166 49.90869-109.643166 111.500467l0 669.009963C196.775642 908.096247 245.86671 958.004937 306.419831 958.004937L306.419831 958.004937zM251.605412 177.494507c0-30.773887 24.541953-55.746652 54.81442-55.746652L717.577099 121.747855c30.268374 0 54.82363 24.972764 54.82363 55.746652l0 27.881001L251.605412 205.375507 251.605412 177.494507 251.605412 177.494507zM251.605412 261.126252l520.795317 0 0 445.13308L251.605412 706.259332 251.605412 261.126252 251.605412 261.126252zM251.605412 762.009054l520.795317 0 0 84.495416c0 30.795377-24.555256 55.749722-54.82363 55.749722L306.419831 902.254192c-30.271444 0-54.81442-24.954345-54.81442-55.749722L251.605412 762.009054 251.605412 762.009054zM511.994883 874.383424c22.697955 0 41.10621-18.71627 41.10621-41.814338 0-23.093974-18.407232-41.814338-41.10621-41.814338-22.697955 0-41.10314 18.71934-41.10314 41.814338C470.892767 855.667154 489.296929 874.383424 511.994883 874.383424L511.994883 874.383424zM511.994883 874.383424" />

</svg>
